# xmcd
#
# Track frame offsets: 
#        150
#        15807
#        32417
#        51241
#        67758
#        83135
#        102888
#        118239
#        135475
#        148919
#
# Disc length: 2204 seconds
#
# Revision: 0
# Processed by: cddbd v1.5.2PL0 Copyright (c) Steve Scherf et al.
# Submitted via: ExactAudioCopy v1.0b4
#
DISCID=7a089a0a
DTITLE=Willie May - Blues Mona
DYEAR=2015
DGENRE=Blues
TTITLE0=Lock It Up
TTITLE1=Big Legged Woman
TTITLE2=Monas Watching Eye
TTITLE3=Stop Hurtin' Me
TTITLE4=Surf Mona Blues
TTITLE5=Children Be Free
TTITLE6=Not Gonna Love Ya'
TTITLE7=You Don't Know Much
TTITLE8=Gloria
TTITLE9=In My Dreams
EXTD=
EXTT0=
EXTT1=
EXTT2=
EXTT3=
EXTT4=
EXTT5=
EXTT6=
EXTT7=
EXTT8=
EXTT9=
PLAYORDER=
